HIERARCHY
ROOT joint_Root
{
	OFFSET 0.0 0.0 0.0
	CHANNELS 6 Xposition Yposition Zposition Zrotation Xrotation Yrotation 
	JOINT Hips
	{
		OFFSET 4.5925 91.4895 -427.239
		CHANNELS 6 Xposition Yposition Zposition Zrotation Xrotation Yrotation 
		JOINT Spine
		{
			OFFSET 15.7357 0.0 0.0
			CHANNELS 6 Xposition Yposition Zposition Zrotation Xrotation Yrotation 
			JOINT Chest
			{
				OFFSET 8.98455 -0.406207 0.0
				CHANNELS 6 Xposition Yposition Zposition Zrotation Xrotation Yrotation 
				JOINT Neck
				{
					OFFSET 16.3773 0.0 0.0
					CHANNELS 6 Xposition Yposition Zposition Zrotation Xrotation Yrotation 
					JOINT Head
					{
						OFFSET 6.45672 0.0 0.0
						CHANNELS 6 Xposition Yposition Zposition Zrotation Xrotation Yrotation 
						End Site
						{
							OFFSET 0.0 0.0 0.0
						}
					}
				}
				JOINT Shoulder_L
				{
					OFFSET 12.9942 -0.242716 4.98039
					CHANNELS 6 Xposition Yposition Zposition Zrotation Xrotation Yrotation 
					JOINT UpperArm_L
					{
						OFFSET 5.34809 0.0 0.0
						CHANNELS 6 Xposition Yposition Zposition Zrotation Xrotation Yrotation 
						JOINT LowerArm_L
						{
							OFFSET 24.3286 1.87007e-05 0.0
							CHANNELS 6 Xposition Yposition Zposition Zrotation Xrotation Yrotation 
							JOINT Hand_L
							{
								OFFSET 22.2916 0.0 0.0
								CHANNELS 6 Xposition Yposition Zposition Zrotation Xrotation Yrotation 
								End Site
								{
									OFFSET 0.0 0.0 0.0
								}
							}
						}
					}
				}
				JOINT Shoulder_R
				{
					OFFSET 12.9945 -0.242716 -4.98039
					CHANNELS 6 Xposition Yposition Zposition Zrotation Xrotation Yrotation 
					JOINT UpperArm_R
					{
						OFFSET -5.34813 0.0 0.0
						CHANNELS 6 Xposition Yposition Zposition Zrotation Xrotation Yrotation 
						JOINT LowerArm_R
						{
							OFFSET -24.3289 0.000322201 0.0
							CHANNELS 6 Xposition Yposition Zposition Zrotation Xrotation Yrotation 
							JOINT Hand_R
							{
								OFFSET -22.2915 -0.000108084 0.0
								CHANNELS 6 Xposition Yposition Zposition Zrotation Xrotation Yrotation 
								End Site
								{
									OFFSET 0.0 0.0 0.0
								}
							}
						}
					}
				}
			}
		}
		JOINT UpperLeg_L
		{
			OFFSET -2.19248 -6.46944 0.0
			CHANNELS 6 Xposition Yposition Zposition Zrotation Xrotation Yrotation 
			JOINT LowerLeg_L
			{
				OFFSET 39.0811 0.0 -1.23785e-05
				CHANNELS 6 Xposition Yposition Zposition Zrotation Xrotation Yrotation 
				JOINT Foot_L
				{
					OFFSET 40.9854 0.0 -1.26872e-05
					CHANNELS 6 Xposition Yposition Zposition Zrotation Xrotation Yrotation 
					JOINT Toes_L
					{
						OFFSET 11.7543 0.0 0.0
						CHANNELS 6 Xposition Yposition Zposition Zrotation Xrotation Yrotation 
						End Site
						{
							OFFSET 0.0 0.0 0.0
						}
					}
				}
			}
		}
		JOINT UpperLeg_R
		{
			OFFSET -2.19251 6.46944 0.0
			CHANNELS 6 Xposition Yposition Zposition Zrotation Xrotation Yrotation 
			JOINT LowerLeg_R
			{
				OFFSET -39.0811 -0.00228153 -0.0401928
				CHANNELS 6 Xposition Yposition Zposition Zrotation Xrotation Yrotation 
				JOINT Foot_R
				{
					OFFSET -40.9854 0.0 0.0
					CHANNELS 6 Xposition Yposition Zposition Zrotation Xrotation Yrotation 
					JOINT Toes_R
					{
						OFFSET -11.7543 0.0 0.0
						CHANNELS 6 Xposition Yposition Zposition Zrotation Xrotation Yrotation 
						End Site
						{
							OFFSET 0.0 0.0 0.0
						}
					}
				}
			}
		}
	}
}
MOTION
Frames:	4
Frame Time:	0.0333333
0.000000 0.000000 0.000000 0.000000 0.000000 -0.000000 143.355000 85.491400 -141.614000 86.758700 7.406710 1.130960 15.735700 0.000005 -0.000001 70.514700 82.516500 -67.827200 8.984550 -0.406207 -0.000000 6.486260 -5.007550 5.655640 16.377300 -0.000001 -0.000001 1.124470 -4.440720 1.264720 6.456720 -0.000001 -0.000000 -1.344020 -2.318880 -1.362220 12.994200 -0.242716 4.980390 -90.718000 2.124120 -71.305500 5.348090 -0.000007 -0.000001 -67.200300 36.260700 -5.474410 24.328600 0.000019 0.000005 15.993700 13.709500 -50.446100 22.291600 -0.000001 0.000005 4.392220 5.578430 -10.311700 12.994500 -0.242716 -4.980390 86.043000 13.053100 -72.973400 -5.348130 -0.000001 -0.000004 -58.489700 39.084000 -6.903680 -24.328900 0.000322 -0.000009 -10.725100 0.124665 -90.674400 -22.291500 -0.000108 -0.000004 28.684900 5.678870 -19.152400 -2.192480 -6.469440 -0.000000 -169.993000 -5.632450 -0.897606 39.081100 -0.000007 -0.000012 0.113306 -0.063692 60.656800 40.985400 -0.000006 -0.000013 -3.828960 6.487980 -34.046600 11.754300 -0.000000 0.000003 -0.028507 -0.210548 -25.199100 -2.192510 6.469440 -0.000001 -168.972000 9.775460 151.216000 -39.081100 -0.002282 -0.040193 0.113300 -0.089363 50.924300 -40.985400 0.000008 0.000006 12.789300 -8.597900 -71.495600 -11.754300 -0.000006 -0.000006 -0.006995 -0.079618 -19.814300
0.000000 0.000000 0.000000 0.000000 0.000000 -0.000000 143.628000 86.273000 -137.024000 87.081400 5.648950 1.693140 15.735700 0.000005 -0.000001 77.175400 82.723900 -74.635000 8.984550 -0.406207 -0.000000 6.508490 -3.248160 5.261090 16.377300 -0.000001 -0.000001 0.819673 -4.925530 2.600620 6.456720 -0.000001 -0.000000 -1.091310 -2.472720 -1.536970 12.994200 -0.242716 4.980390 -91.108300 3.330430 -71.579800 5.348090 -0.000007 -0.000001 -63.758200 39.646800 4.539420 24.328600 0.000019 0.000005 19.020900 15.176500 -52.800600 22.291600 -0.000001 0.000005 2.071430 5.618400 -12.494300 12.994500 -0.242716 -4.980390 86.975600 11.084900 -74.637200 -5.348130 -0.000001 -0.000004 -55.233700 41.802000 -22.617100 -24.328900 0.000322 -0.000009 -8.379270 1.259700 -98.501500 -22.291500 -0.000108 -0.000004 28.078900 5.673320 -17.925100 -2.192480 -6.469440 -0.000000 -172.716000 -3.233640 -9.791740 39.081100 -0.000007 -0.000012 0.024784 -0.007506 73.138300 40.985400 -0.000006 -0.000013 -2.040690 -2.002470 -33.368200 11.754300 -0.000000 0.000003 -0.008809 -0.094522 -20.426700 -2.192510 6.469440 -0.000001 -169.942000 10.352900 156.678000 -39.081100 -0.002282 -0.040193 0.130543 -0.110830 48.954600 -40.985400 0.000008 0.000006 12.716800 -6.765600 -74.138400 -11.754300 -0.000006 -0.000006 -0.005832 -0.069299 -19.393300
0.000000 0.000000 0.000000 0.000000 0.000000 -0.000000 144.144000 87.845700 -132.460000 88.083800 2.132760 2.386530 15.735700 0.000005 -0.000001 90.298400 82.683100 -88.500900 8.984550 -0.406207 -0.000000 6.869110 0.061940 3.587410 16.377300 -0.000001 -0.000001 1.208280 -5.264440 3.593940 6.456720 -0.000001 -0.000000 -2.027640 -4.855190 0.508872 12.994200 -0.242716 4.980390 -90.424000 1.175190 -70.129000 5.348090 -0.000007 -0.000001 -63.132700 45.344300 12.513700 24.328600 0.000019 0.000005 15.488300 10.053700 -57.793300 22.291600 -0.000001 0.000005 3.009790 5.625260 -12.990800 12.994500 -0.242716 -4.980390 87.999300 8.034160 -75.969800 -5.348130 -0.000001 -0.000004 -52.544900 41.654100 -35.490300 -24.328900 0.000322 -0.000009 -7.913550 2.199230 -105.425000 -22.291500 -0.000108 -0.000004 26.923600 5.662960 -16.362600 -2.192480 -6.469440 -0.000000 -176.504000 -3.281800 -16.146100 39.081100 -0.000007 -0.000012 -0.146204 0.024379 80.536300 40.985400 -0.000006 -0.000013 7.055580 -5.935120 -42.835100 11.754300 -0.000000 0.000003 -0.008403 -0.091298 -20.295000 -2.192510 6.469440 -0.000001 -172.459000 11.096500 163.941000 -39.081100 -0.002282 -0.040193 0.122260 -0.123698 43.889200 -40.985400 0.000008 0.000006 12.785600 -2.222510 -75.222300 -11.754300 -0.000006 -0.000006 -0.005442 -0.065677 -19.245700
0.000000 0.000000 0.000000 0.000000 0.000000 -0.000000 144.868000 89.680700 -127.984000 89.853300 -0.801339 2.044620 15.735700 0.000005 -0.000001 102.085000 82.613600 -101.304000 8.984550 -0.406207 -0.000000 6.666080 3.075670 1.382090 16.377300 -0.000001 -0.000001 1.489080 -5.600610 4.027650 6.456720 -0.000001 -0.000000 -2.338530 -7.269460 1.478070 12.994200 -0.242716 4.980390 -89.374700 -1.633170 -69.054300 5.348090 -0.000007 -0.000001 -64.368400 46.808100 19.678800 24.328600 0.000019 0.000005 16.389000 8.161790 -64.236500 22.291600 -0.000001 0.000005 2.726480 5.628290 -13.208400 12.994500 -0.242716 -4.980390 88.758700 5.293190 -76.783700 -5.348130 -0.000001 -0.000004 -49.605700 40.029700 -45.220500 -24.328900 0.000322 -0.000009 -7.722110 3.038100 -111.354000 -22.291500 -0.000108 -0.000004 24.960900 5.638520 -13.935900 -2.192480 -6.469440 -0.000000 179.364000 -2.405780 -22.913300 39.081100 -0.000007 -0.000012 -0.222965 0.028192 82.795700 40.985400 -0.000006 -0.000013 9.655970 -11.619600 -47.346900 11.754300 -0.000000 0.000003 -0.007469 -0.083650 -19.982600 -2.192510 6.469440 -0.000001 -176.490000 14.000300 170.570000 -39.081100 -0.002282 -0.040193 0.095738 -0.121943 37.167800 -40.985400 0.000008 0.000006 12.779500 4.579480 -75.068900 -11.754300 -0.000006 -0.000006 -0.006079 -0.071554 -19.485300
